<svg width="117" height="22" viewBox="0 0 117 22" fill="none" xmlns="http://www.w3.org/2000/svg">
    <path d="M44.7443 5.36364V17H42.6193L37.5568 9.67614H37.4716V17H35.0114V5.36364H37.1705L42.1932 12.6818H42.2955V5.36364H44.7443ZM48.7402 17.1648C48.1834 17.1648 47.6871 17.0682 47.2515 16.875C46.8159 16.678 46.4712 16.3883 46.2174 16.0057C45.9674 15.6193 45.8424 15.1383 45.8424 14.5625C45.8424 14.0777 45.9315 13.6705 46.1095 13.3409C46.2875 13.0114 46.5299 12.7462 46.8368 12.5455C47.1436 12.3447 47.4921 12.1932 47.8822 12.0909C48.2762 11.9886 48.689 11.9167 49.1209 11.875C49.6284 11.822 50.0375 11.7727 50.3481 11.7273C50.6587 11.678 50.8841 11.6061 51.0243 11.5114C51.1644 11.4167 51.2345 11.2765 51.2345 11.0909V11.0568C51.2345 10.697 51.1209 10.4186 50.8936 10.2216C50.6701 10.0246 50.3519 9.92614 49.939 9.92614C49.5034 9.92614 49.1568 10.0227 48.8993 10.2159C48.6417 10.4053 48.4712 10.6439 48.3879 10.9318L46.1493 10.75C46.2629 10.2197 46.4864 9.76136 46.8197 9.375C47.153 8.98485 47.583 8.68561 48.1095 8.47727C48.6398 8.26515 49.2534 8.15909 49.9504 8.15909C50.4352 8.15909 50.8993 8.21591 51.3424 8.32955C51.7894 8.44318 52.1852 8.61932 52.5299 8.85795C52.8784 9.09659 53.153 9.40341 53.3538 9.77841C53.5546 10.1496 53.6549 10.5947 53.6549 11.1136V17H51.3595V15.7898H51.2913C51.1512 16.0625 50.9637 16.303 50.7288 16.5114C50.494 16.7159 50.2118 16.8769 49.8822 16.9943C49.5527 17.108 49.172 17.1648 48.7402 17.1648ZM49.4334 15.4943C49.7894 15.4943 50.1038 15.4242 50.3765 15.2841C50.6493 15.1402 50.8633 14.947 51.0186 14.7045C51.1739 14.4621 51.2515 14.1875 51.2515 13.8807V12.9545C51.1758 13.0038 51.0716 13.0492 50.939 13.0909C50.8102 13.1288 50.6644 13.1648 50.5015 13.1989C50.3387 13.2292 50.1758 13.2576 50.0129 13.2841C49.85 13.3068 49.7023 13.3277 49.5697 13.3466C49.2856 13.3883 49.0375 13.4545 48.8254 13.5455C48.6133 13.6364 48.4485 13.7595 48.3311 13.9148C48.2137 14.0663 48.1549 14.2557 48.1549 14.483C48.1549 14.8125 48.2743 15.0644 48.5129 15.2386C48.7553 15.4091 49.0621 15.4943 49.4334 15.4943ZM55.0073 17V15.5568L59.2801 10.267V10.2045H55.1551V8.27273H62.1948V9.84659L58.1835 15.0057V15.0682H62.3426V17H55.0073ZM63.7134 17V8.27273H66.1339V17H63.7134ZM64.9293 7.14773C64.5695 7.14773 64.2608 7.02841 64.0032 6.78977C63.7494 6.54735 63.6225 6.25758 63.6225 5.92045C63.6225 5.58712 63.7494 5.30114 64.0032 5.0625C64.2608 4.82008 64.5695 4.69886 64.9293 4.69886C65.2892 4.69886 65.596 4.82008 65.8498 5.0625C66.1073 5.30114 66.2361 5.58712 66.2361 5.92045C66.2361 6.25758 66.1073 6.54735 65.8498 6.78977C65.596 7.02841 65.2892 7.14773 64.9293 7.14773ZM67.6382 17V5.36364H70.0587V9.73864H70.1326C70.2386 9.50379 70.392 9.26515 70.5928 9.02273C70.7973 8.77652 71.0625 8.57197 71.3882 8.40909C71.7178 8.24242 72.1269 8.15909 72.6155 8.15909C73.2519 8.15909 73.839 8.32576 74.3769 8.65909C74.9148 8.98864 75.3447 9.48674 75.6666 10.1534C75.9886 10.8163 76.1496 11.6477 76.1496 12.6477C76.1496 13.6212 75.9924 14.4432 75.678 15.1136C75.3674 15.7803 74.9432 16.286 74.4053 16.6307C73.8712 16.9716 73.2727 17.142 72.6098 17.142C72.1401 17.142 71.7405 17.0644 71.411 16.9091C71.0852 16.7538 70.8182 16.5587 70.6098 16.3239C70.4015 16.0852 70.2424 15.8447 70.1326 15.6023H70.0246V17H67.6382ZM70.0076 12.6364C70.0076 13.1553 70.0795 13.608 70.2235 13.9943C70.3674 14.3807 70.5757 14.6818 70.8485 14.8977C71.1212 15.1098 71.4526 15.2159 71.8428 15.2159C72.2367 15.2159 72.5701 15.108 72.8428 14.892C73.1155 14.6723 73.322 14.3693 73.4621 13.983C73.606 13.5928 73.678 13.1439 73.678 12.6364C73.678 12.1326 73.6079 11.6894 73.4678 11.3068C73.3276 10.9242 73.1212 10.625 72.8485 10.4091C72.5757 10.1932 72.2405 10.0852 71.8428 10.0852C71.4488 10.0852 71.1155 10.1894 70.8428 10.3977C70.5738 10.6061 70.3674 10.9015 70.2235 11.2841C70.0795 11.6667 70.0076 12.1174 70.0076 12.6364ZM82.8812 13.2841V8.27273H85.3017V17H82.9778V15.4148H82.8869C82.69 15.9261 82.3623 16.3371 81.904 16.6477C81.4494 16.9583 80.8945 17.1136 80.2392 17.1136C79.6559 17.1136 79.1426 16.9811 78.6994 16.7159C78.2562 16.4508 77.9097 16.0739 77.6597 15.5852C77.4134 15.0966 77.2884 14.5114 77.2847 13.8295V8.27273H79.7051V13.3977C79.7089 13.9129 79.8472 14.3201 80.1199 14.6193C80.3926 14.9186 80.7581 15.0682 81.2165 15.0682C81.5081 15.0682 81.7809 15.0019 82.0347 14.8693C82.2884 14.733 82.493 14.5322 82.6483 14.267C82.8074 14.0019 82.885 13.6742 82.8812 13.2841ZM86.7578 17V8.27273H89.1044V9.79545H89.1953C89.3544 9.25379 89.6214 8.8447 89.9964 8.56818C90.3714 8.28788 90.8032 8.14773 91.2919 8.14773C91.4131 8.14773 91.5438 8.1553 91.6839 8.17045C91.8241 8.18561 91.9472 8.20644 92.0532 8.23295V10.3807C91.9396 10.3466 91.7824 10.3163 91.5816 10.2898C91.3809 10.2633 91.1972 10.25 91.0305 10.25C90.6744 10.25 90.3563 10.3277 90.076 10.483C89.7994 10.6345 89.5798 10.8466 89.4169 11.1193C89.2578 11.392 89.1782 11.7064 89.1782 12.0625V17H86.7578ZM95.2451 11.9545V17H92.8247V8.27273H95.1315V9.8125H95.2337C95.4269 9.30492 95.7508 8.90341 96.2053 8.60795C96.6599 8.30871 97.211 8.15909 97.8587 8.15909C98.4648 8.15909 98.9932 8.29167 99.444 8.55682C99.8947 8.82197 100.245 9.20076 100.495 9.69318C100.745 10.1818 100.87 10.7652 100.87 11.4432V17H98.4497V11.875C98.4534 11.3409 98.3171 10.9242 98.0406 10.625C97.7641 10.322 97.3834 10.1705 96.8985 10.1705C96.5728 10.1705 96.2849 10.2405 96.0349 10.3807C95.7887 10.5208 95.5955 10.7254 95.4553 10.9943C95.319 11.2595 95.2489 11.5795 95.2451 11.9545ZM106.275 17.1705C105.377 17.1705 104.605 16.9886 103.957 16.625C103.313 16.2576 102.817 15.7386 102.468 15.0682C102.12 14.3939 101.946 13.5966 101.946 12.6761C101.946 11.7784 102.12 10.9905 102.468 10.3125C102.817 9.63447 103.307 9.10606 103.94 8.72727C104.576 8.34848 105.322 8.15909 106.178 8.15909C106.754 8.15909 107.29 8.25189 107.786 8.4375C108.286 8.61932 108.722 8.89394 109.093 9.26136C109.468 9.62879 109.76 10.0909 109.968 10.6477C110.177 11.2008 110.281 11.8485 110.281 12.5909V13.2557H102.911V11.7557H108.002C108.002 11.4072 107.927 11.0985 107.775 10.8295C107.624 10.5606 107.413 10.3504 107.144 10.1989C106.879 10.0436 106.571 9.96591 106.218 9.96591C105.851 9.96591 105.525 10.0511 105.241 10.2216C104.961 10.3883 104.741 10.6136 104.582 10.8977C104.423 11.178 104.341 11.4905 104.338 11.8352V13.2614C104.338 13.6932 104.417 14.0663 104.576 14.3807C104.739 14.6951 104.968 14.9375 105.264 15.108C105.559 15.2784 105.91 15.3636 106.315 15.3636C106.584 15.3636 106.83 15.3258 107.053 15.25C107.277 15.1742 107.468 15.0606 107.627 14.9091C107.786 14.7576 107.908 14.572 107.991 14.3523L110.23 14.5C110.116 15.0379 109.883 15.5076 109.531 15.9091C109.182 16.3068 108.731 16.6174 108.178 16.8409C107.629 17.0606 106.995 17.1705 106.275 17.1705ZM111.38 17V8.27273H113.727V9.79545H113.818C113.977 9.25379 114.244 8.8447 114.619 8.56818C114.994 8.28788 115.426 8.14773 115.914 8.14773C116.036 8.14773 116.166 8.1553 116.306 8.17045C116.447 8.18561 116.57 8.20644 116.676 8.23295V10.3807C116.562 10.3466 116.405 10.3163 116.204 10.2898C116.003 10.2633 115.82 10.25 115.653 10.25C115.297 10.25 114.979 10.3277 114.698 10.483C114.422 10.6345 114.202 10.8466 114.039 11.1193C113.88 11.392 113.801 11.7064 113.801 12.0625V17H111.38Z" fill="black"/>
    <path d="M7.99554 5.22916V14.4692L0 19.0892V9.84915L7.99554 5.22916Z" fill="black"/>
    <path d="M24.0023 5.22914L16.0067 9.84913L7.99561 5.22914L16.0067 0.609131L24.0023 5.22914Z" fill="black"/>
    <path d="M20.0044 16.7713V7.53134L27.9999 2.91135V12.1514L20.0044 16.7713Z" fill="black"/>
    <path d="M3.99786 16.7714L11.9934 12.1514L20.0045 16.7714L11.9934 21.3914L3.99786 16.7714Z" fill="black"/>
</svg>
